<svg xmlns="http://www.w3.org/2000/svg" width="106" height="100" viewBox="0 0 100 94"><path d="M82 44.6v15.8c-1.3-.8-2.7-1.5-4.2-2.4-1.5-.8-2.4-1.4-2.9-1.8l-3.3-5.6c-.5-.9-1-1.8-1.5-2.8-.5-1-1.1-1.9-1.8-2.7-.7-.8-1.5-1.5-2.5-2-.9-.5-2.1-.7-3.6-.6-1.3.1-2.5.5-3.5 1.2l-3 2.1c-.7.5-1.6 1.1-2.7 1.9-1.1.8-2.3 1.5-3.5 2.3-1.2.8-2.3 1.5-3.3 2.2-1 .7-1.5 1.1-1.7 1.3-.4.4-.7.9-1 1.4-.2.8-.4 1.8-.7 3.1l-.9 3.9-1.1 4.9c-.2.8-.1 1.4.4 2 .5.6 1.1.9 1.8 1 1.7.3 2.7-.5 3.1-2.3l2.7-10.2 5.8-3.9c-.4 1.5-.8 3-1.1 4.4-.4 1.4-.8 2.8-1.1 4.2l-3.8 14.2c-.1.6-.2 1.1-.3 1.7-.1.6-.2 1.1-.4 1.6s-.5 1-1 1.6c-.5.6-1 1.2-1.4 1.8L39 92.8H18V44.6L9.2 52 1 42 50 1l21.7 18.2v-6.3H82v14.8L99 42l-8.2 10-8.8-7.4zM68.3 81.1c-.2-.4-.5-.8-1-1.1-.5-.4-.9-.8-1.3-1.1l-7.2-6.6c-.5 1.3-.8 2.8-1 4.4-.2 1.6-.6 3.1-1.1 4.4-.2.6-.5 1.2-1.1 1.9l-1.5 2.1c-.5.8-1.2 1.9-2.2 3.3-1 1.4-2 2.9-3.1 4.3h22c-.4-1.3-.8-2.9-1.2-4.8-.4-1.9-.6-3-.6-3.5-.1-.6-.2-1.1-.3-1.7-.1-.6-.2-1.1-.4-1.6m6.3-46c0-1.8-.6-3.3-1.8-4.6-1.2-1.2-2.7-1.9-4.4-1.9-1.8 0-3.3.6-4.5 1.9-1.2 1.2-1.8 2.8-1.8 4.6 0 1.7.6 3.2 1.8 4.5 1.2 1.3 2.7 1.9 4.5 1.9 1.7 0 3.2-.6 4.4-1.9 1.1-1.3 1.8-2.8 1.8-4.5m-7 21.1c.5.7.9 1.3 1.4 1.9.4.6 1.1 1.2 2 1.9.9.7 2.2 1.6 3.8 2.5 1.6.9 3.9 2.1 6.8 3.4L81.4 93h-2.3l-2.4-11.3c-.2-.8-.4-1.5-.5-2.2-.1-.7-.3-1.4-.5-1.9-.3-.5-.8-1.2-1.4-1.9-.6-.7-7.9-8.9-9.2-10.5l2.5-9z" fill="#00AFD8"/></svg>