<svg xmlns="http://www.w3.org/2000/svg" width="138" height="100" viewBox="0 0 100 62"><path fill="#E54725" d="M78.9 21.3c-2.7 0-5.3.5-7.7 1.5C68.3 10.3 57.1 1 43.6 1 28 1 15.2 13.6 15.2 29.1c0 .8.2 1.6.2 2.3C7.4 31.7 1 38.2 1 46.2 1 54.4 7.7 61 15.9 61h13.2c-2.3-3.3-3.7-7.3-3.6-11.4.1-7.8 5.6-14.2 11.4-16.7-3 2.5-4.9 8-1.1 9.8 4.3 2.1 16-7.9 6.7-24.6 7.4 3.9 14.2 10.3 14.2 23.3 0 .7.6 1.3 1.3 1.3.7 0 1.3-.6 1.3-1.3 0-4.4-.8-8.5-2.5-12.1 6 6.3 7.5 14.5 7.6 18.6 0 4.7-1 9.3-3.3 13h17.6C90 61 99 52.1 99 41.1c0-10.9-9-19.8-20.1-19.8z"/></svg>